<?xml version="1.0" encoding="iso-8859-1"?>
<!-- Generator: Adobe Illustrator 19.0.0, SVG Export Plug-In . SVG Version: 6.00 Build 0)  -->
<svg fill="rgb(108, 155, 217)" version="1.1" id="Layer_1" xmlns="http://www.w3.org/2000/svg" xmlns:xlink="http://www.w3.org/1999/xlink" x="0px" y="0px"
	 viewBox="0 0 485 485" style="enable-background:new 0 0 485 485;" xml:space="preserve">
<g>
	<polygon points="257.5,169.203 227.5,169.203 227.5,227.5 169.203,227.5 169.203,257.5 227.5,257.5 227.5,315.797 257.5,315.797 
		257.5,257.5 315.797,257.5 315.797,227.5 257.5,227.5 	"/>
	<polygon points="319.317,0 319.317,30 455,30 455,166.667 485,166.667 485,0 	"/>
	<polygon points="455,455 319.317,455 319.317,485 485,485 485,318.333 455,318.333 	"/>
	<polygon points="30,318.333 0,318.333 0,485 167.65,485 167.65,455 30,455 	"/>
	<polygon points="0,166.667 30,166.667 30,30 167.65,30 167.65,0 0,0 	"/>
</g>
</svg>
